<?xml version="1.0" encoding="UTF-8" standalone="no"?>
<!DOCTYPE svg PUBLIC "-//W3C//DTD SVG 1.1//EN" "http://www.w3.org/Graphics/SVG/1.1/DTD/svg11.dtd">
<svg width="100%" height="100%" viewBox="0 0 500 500" version="1.1" xmlns="http://www.w3.org/2000/svg" xmlns:xlink="http://www.w3.org/1999/xlink" xml:space="preserve" xmlns:serif="http://www.serif.com/" style="fill-rule:evenodd;clip-rule:evenodd;stroke-linejoin:round;stroke-miterlimit:2;">
    <g transform="matrix(1,0,0,1,0,33.3078)">
        <g>
            <g transform="matrix(1,0,0,1,39.3182,6.44907)">
                <text x="84.462px" y="93.126px" style="font-family:'ArialMT', 'Arial', sans-serif;font-size:28px;fill:rgb(242,175,13);stroke:rgb(242,175,13);stroke-width:1px;">Crea</text>
            </g>
            <g transform="matrix(1.36904,0,0,1.33191,47.6751,57.5877)">
                <path d="M9,42C8.2,42 7.5,41.7 6.9,41.1C6.3,40.5 6,39.8 6,39L6,9C6,8.2 6.3,7.5 6.9,6.9C7.5,6.3 8.2,6 9,6L24,6L24,9L9,9L9,39L39,39L39,24L42,24L42,39C42,39.8 41.7,40.5 41.1,41.1C40.5,41.7 39.8,42 39,42L9,42ZM33,21L33,15L27,15L27,12L33,12L33,6L36,6L36,12L42,12L42,15L36,15L36,21L33,21Z" style="fill:rgb(11,42,87);fill-rule:nonzero;stroke:rgb(11,42,87);stroke-width:0.74px;"/>
            </g>
        </g>
        <g transform="matrix(1,0,0,1,0,-1.58811)">
            <g transform="matrix(1,0,0,1,36.3819,73.5962)">
                <text x="88.121px" y="154.461px" style="font-family:'ArialMT', 'Arial', sans-serif;font-size:28px;fill:rgb(242,175,13);stroke:rgb(242,175,13);stroke-width:1px;">Envía</text>
            </g>
            <g transform="matrix(1.33784,0,0,1.43933,47.8522,183.601)">
                <path d="M6,40L6,8L44,24L6,40ZM9,35.35L36.2,24L9,12.5L9,20.9L21.1,24L9,27L9,35.35ZM9,35.35L9,12.5L9,35.35Z" style="fill:rgb(11,42,87);fill-rule:nonzero;stroke:rgb(11,42,87);stroke-width:0.72px;"/>
            </g>
        </g>
        <g transform="matrix(1,0,0,1,0,-13.8312)">
            <g transform="matrix(1,0,0,1,34.0615,160.348)">
                <text x="90.299px" y="207.036px" style="font-family:'ArialMT', 'Arial', sans-serif;font-size:28px;fill:rgb(242,175,13);stroke:rgb(242,175,13);stroke-width:1px;">Firma</text>
            </g>
            <g transform="matrix(1.26316,0,0,1.33942,56.1936,325.381)">
                <path d="M28,42C27.6,42 27.25,41.85 26.95,41.55C26.65,41.25 26.5,40.9 26.5,40.5C26.5,40.067 26.65,39.708 26.95,39.425C27.25,39.142 27.6,39 28,39C29.967,39 31.625,38.6 32.975,37.8C34.325,37 35,36.067 35,35C35,34.233 34.508,33.483 33.525,32.75C32.542,32.017 31.217,31.45 29.55,31.05L31.9,28.7C34,29.333 35.542,30.208 36.525,31.325C37.508,32.442 38,33.667 38,35C38,37.233 36.983,38.958 34.95,40.175C32.917,41.392 30.6,42 28,42ZM12,27.3C9.867,26.833 8.333,26.1 7.4,25.1C6.467,24.1 6,23.067 6,22C6,20.833 6.433,19.783 7.3,18.85C8.167,17.917 10.167,16.883 13.3,15.75C15.5,14.95 16.917,14.3 17.55,13.8C18.183,13.3 18.5,12.717 18.5,12.05C18.5,11.217 18.133,10.5 17.4,9.9C16.667,9.3 15.533,9 14,9C13.1,9 12.333,9.117 11.7,9.35C11.067,9.583 10.5,9.95 10,10.45C9.733,10.717 9.392,10.875 8.975,10.925C8.558,10.975 8.183,10.867 7.85,10.6C7.483,10.333 7.292,10 7.275,9.6C7.258,9.2 7.383,8.85 7.65,8.55C8.217,7.817 9.067,7.208 10.2,6.725C11.333,6.242 12.6,6 14,6C16.267,6 18.083,6.542 19.45,7.625C20.817,8.708 21.5,10.183 21.5,12.05C21.5,13.417 21.025,14.575 20.075,15.525C19.125,16.475 17.267,17.467 14.5,18.5C12.267,19.333 10.792,19.992 10.075,20.475C9.358,20.958 9,21.467 9,22C9,22.533 9.45,23.042 10.35,23.525C11.25,24.008 12.6,24.467 14.4,24.9L12,27.3ZM36.8,19.6L30.4,13.2L32.65,10.95C33.25,10.35 33.917,10.05 34.65,10.05C35.383,10.05 36.05,10.35 36.65,10.95L39.05,13.35C39.65,13.95 39.95,14.617 39.95,15.35C39.95,16.083 39.65,16.75 39.05,17.35L36.8,19.6ZM11,36.9L28.25,19.65L11,36.9ZM8,42L8,35.6L28.25,15.35L34.65,21.75L14.4,42L8,42Z" style="fill:rgb(11,42,87);fill-rule:nonzero;stroke:rgb(11,42,87);stroke-width:0.77px;"/>
            </g>
        </g>
    </g>
    <g transform="matrix(1,0,0,1,-3.93783,-6.20932)">
        <rect x="251.951" y="72.635" width="3.974" height="367.15" style="fill:rgb(11,42,87);stroke:rgb(11,42,87);stroke-width:1px;stroke-linecap:round;stroke-miterlimit:1.5;"/>
    </g>
</svg>
